<?xml version="1.0" encoding="UTF-8" standalone="no"?><!-- Generator: Gravit.io --><svg xmlns="http://www.w3.org/2000/svg" xmlns:xlink="http://www.w3.org/1999/xlink" style="isolation:isolate" viewBox="0 0 16 16" width="16pt" height="16pt"><defs><clipPath id="_clipPath_E1t5cT73RAFEM2e63GfxGks54fXillS9"><rect width="16" height="16"/></clipPath></defs><g clip-path="url(#_clipPath_E1t5cT73RAFEM2e63GfxGks54fXillS9)"><rect width="16" height="16" style="fill:rgb(247,208,112)"/><g style="isolation:isolate"/><g><g><g><path d=" M 2.522 6.824 L 2.522 12.703 L 4.873 12.703 L 4.873 6.824 C 4.873 6.175 4.346 5.649 3.697 5.649 L 3.697 5.649 C 3.048 5.649 2.522 6.175 2.522 6.824 Z " fill="rgb(232,230,225)"/><path d=" M 3.697 5.355 C 4.085 5.355 4.461 5.508 4.732 5.79 C 5.014 6.06 5.167 6.436 5.167 6.824 L 5.167 12.997 L 2.228 12.997 L 2.228 6.824 C 2.228 6.436 2.38 6.06 2.663 5.79 C 2.933 5.508 3.309 5.355 3.697 5.355 Z  M 3.697 5.943 C 3.932 5.943 4.156 6.037 4.32 6.201 C 4.485 6.366 4.579 6.589 4.579 6.824 L 4.579 12.409 L 2.815 12.409 L 2.815 6.824 C 2.815 6.589 2.909 6.366 3.074 6.201 C 3.239 6.037 3.462 5.943 3.697 5.943 Z " fill-rule="evenodd" fill="rgb(201,154,46)"/></g><g><path d=" M 2.522 4.473 C 2.522 3.824 3.048 3.297 3.697 3.297 C 4.346 3.297 4.873 3.824 4.873 4.473 C 4.873 5.122 4.346 5.649 3.697 5.649 L 3.697 5.649 C 3.048 5.649 2.522 5.122 2.522 4.473 Z " fill="rgb(232,230,225)"/><path d=" M 2.228 4.473 C 2.228 4.085 2.38 3.709 2.663 3.438 C 2.933 3.156 3.309 3.003 3.697 3.003 C 4.085 3.003 4.461 3.156 4.732 3.438 C 5.014 3.709 5.167 4.085 5.167 4.473 C 5.167 4.861 5.014 5.237 4.732 5.508 C 4.461 5.79 4.085 5.943 3.697 5.943 C 3.309 5.943 2.933 5.79 2.663 5.508 C 2.38 5.237 2.228 4.861 2.228 4.473 Z  M 2.815 4.473 C 2.815 4.238 2.909 4.014 3.074 3.85 C 3.239 3.685 3.462 3.591 3.697 3.591 C 3.932 3.591 4.156 3.685 4.32 3.85 C 4.485 4.014 4.579 4.238 4.579 4.473 C 4.579 4.708 4.485 4.931 4.32 5.096 C 4.156 5.261 3.932 5.355 3.697 5.355 C 3.462 5.355 3.239 5.261 3.074 5.096 C 2.909 4.931 2.815 4.708 2.815 4.473 Z " fill-rule="evenodd" fill="rgb(201,154,46)"/></g></g><g><g><path d=" M 10.056 6.348 L 10.056 14.606 L 13.36 14.606 L 13.36 6.348 C 13.36 5.437 12.62 4.697 11.708 4.697 L 11.708 4.697 C 10.797 4.697 10.056 5.437 10.056 6.348 Z " fill="rgb(232,230,225)"/><path d=" M 11.708 4.284 C 12.253 4.284 12.781 4.499 13.161 4.895 C 13.558 5.275 13.772 5.803 13.772 6.348 L 13.772 15.019 L 9.644 15.019 L 9.644 6.348 C 9.644 5.803 9.858 5.275 10.255 4.895 C 10.635 4.499 11.163 4.284 11.708 4.284 Z  M 11.708 5.11 C 12.038 5.11 12.352 5.242 12.583 5.473 C 12.815 5.704 12.947 6.018 12.947 6.348 L 12.947 14.193 L 10.469 14.193 L 10.469 6.348 C 10.469 6.018 10.601 5.704 10.833 5.473 C 11.064 5.242 11.378 5.11 11.708 5.11 Z " fill-rule="evenodd" fill="rgb(201,154,46)"/></g><g><path d=" M 10.056 3.045 C 10.056 2.134 10.797 1.394 11.708 1.394 C 12.62 1.394 13.36 2.134 13.36 3.045 C 13.36 3.957 12.62 4.697 11.708 4.697 L 11.708 4.697 C 10.797 4.697 10.056 3.957 10.056 3.045 Z " fill="rgb(232,230,225)"/><path d=" M 9.644 3.045 C 9.644 2.5 9.858 1.972 10.255 1.592 C 10.635 1.196 11.163 0.981 11.708 0.981 C 12.253 0.981 12.781 1.196 13.161 1.592 C 13.558 1.972 13.772 2.5 13.772 3.045 C 13.772 3.59 13.558 4.119 13.161 4.499 C 12.781 4.895 12.253 5.11 11.708 5.11 C 11.163 5.11 10.635 4.895 10.255 4.499 C 9.858 4.119 9.644 3.59 9.644 3.045 Z  M 10.469 3.045 C 10.469 2.715 10.601 2.401 10.833 2.17 C 11.064 1.939 11.378 1.807 11.708 1.807 C 12.038 1.807 12.352 1.939 12.583 2.17 C 12.815 2.401 12.947 2.715 12.947 3.045 C 12.947 3.376 12.815 3.69 12.583 3.921 C 12.352 4.152 12.038 4.284 11.708 4.284 C 11.378 4.284 11.064 4.152 10.833 3.921 C 10.601 3.69 10.469 3.376 10.469 3.045 Z " fill-rule="evenodd" fill="rgb(201,154,46)"/></g></g><g><g><path d=" M 6.06 6.598 L 6.06 13.61 L 8.865 13.61 L 8.865 6.598 C 8.865 5.824 8.237 5.195 7.463 5.195 L 7.463 5.195 C 6.689 5.195 6.06 5.824 6.06 6.598 Z " fill="rgb(232,230,225)"/><path d=" M 7.463 4.845 C 7.926 4.845 8.374 5.027 8.697 5.363 C 9.034 5.686 9.216 6.135 9.216 6.598 L 9.216 13.96 L 5.71 13.96 L 5.71 6.598 C 5.71 6.135 5.892 5.686 6.229 5.363 C 6.551 5.027 7 4.845 7.463 4.845 Z  M 7.463 5.546 C 7.743 5.546 8.01 5.658 8.206 5.854 C 8.402 6.051 8.515 6.317 8.515 6.598 L 8.515 13.259 L 6.411 13.259 L 6.411 6.598 C 6.411 6.317 6.523 6.051 6.72 5.854 C 6.916 5.658 7.182 5.546 7.463 5.546 Z " fill-rule="evenodd" fill="rgb(201,154,46)"/></g><g><path d=" M 6.06 3.793 C 6.06 3.019 6.689 2.39 7.463 2.39 C 8.237 2.39 8.865 3.019 8.865 3.793 C 8.865 4.567 8.237 5.195 7.463 5.195 L 7.463 5.195 C 6.689 5.195 6.06 4.567 6.06 3.793 Z " fill="rgb(232,230,225)"/><path d=" M 5.71 3.793 C 5.71 3.33 5.892 2.881 6.229 2.559 C 6.551 2.222 7 2.04 7.463 2.04 C 7.926 2.04 8.374 2.222 8.697 2.559 C 9.034 2.881 9.216 3.33 9.216 3.793 C 9.216 4.255 9.034 4.704 8.697 5.027 C 8.374 5.363 7.926 5.546 7.463 5.546 C 7 5.546 6.551 5.363 6.229 5.027 C 5.892 4.704 5.71 4.255 5.71 3.793 Z  M 6.411 3.793 C 6.411 3.512 6.523 3.246 6.72 3.049 C 6.916 2.853 7.182 2.741 7.463 2.741 C 7.743 2.741 8.01 2.853 8.206 3.049 C 8.402 3.246 8.515 3.512 8.515 3.793 C 8.515 4.073 8.402 4.34 8.206 4.536 C 8.01 4.732 7.743 4.845 7.463 4.845 C 7.182 4.845 6.916 4.732 6.72 4.536 C 6.523 4.34 6.411 4.073 6.411 3.793 Z " fill-rule="evenodd" fill="rgb(201,154,46)"/></g></g></g><path d=" M -0.5 -0.5 L 16.5 -0.5 L 16.5 16.5 L -0.5 16.5 L -0.5 -0.5 Z  M 0.5 0.5 L 15.5 0.5 L 15.5 15.5 L 0.5 15.5 L 0.5 0.5 Z " fill-rule="evenodd" fill="rgb(201,154,46)"/><path d=" M 10.428 5.12 L 10.428 5.12 L 13.924 5.12 L 13.924 5.12 Q 14.38 5.12 14.704 5.456 L 14.704 5.456 L 14.704 5.456 Q 15.028 5.792 15.028 6.248 L 15.028 6.248 L 15.028 9.744 L 15.028 9.744 Q 15.028 10.2 14.704 10.54 L 14.704 10.54 L 14.704 10.54 Q 14.38 10.88 13.924 10.88 L 13.924 10.88 L 10.428 10.88 L 10.428 10.88 Q 9.972 10.88 9.648 10.54 L 9.648 10.54 L 9.648 10.54 Q 9.324 10.2 9.324 9.744 L 9.324 9.744 L 9.324 6.248 L 9.324 6.248 Q 9.324 5.792 9.648 5.456 L 9.648 5.456 L 9.648 5.456 Q 9.972 5.12 10.428 5.12 Z  M 10.372 8.824 L 13.508 6.192 L 10.428 6.192 L 10.428 6.192 Q 10.372 6.192 10.372 6.248 L 10.372 6.248 L 10.372 8.824 Z  M 13.98 7.168 L 10.844 9.8 L 13.924 9.8 L 13.924 9.8 Q 13.98 9.8 13.98 9.744 L 13.98 9.744 L 13.98 7.168 Z  M 2.076 5.12 L 2.076 5.12 L 5.572 5.12 L 5.572 5.12 Q 6.028 5.12 6.352 5.444 L 6.352 5.444 L 6.352 5.444 Q 6.676 5.768 6.676 6.224 L 6.676 6.224 L 6.676 7.504 L 6.676 7.504 Q 6.676 7.96 6.352 8.284 L 6.352 8.284 L 6.352 8.284 Q 6.028 8.608 5.572 8.608 L 5.572 8.608 L 2.076 8.608 L 2.076 8.608 Q 2.02 8.608 2.02 8.656 L 2.02 8.656 L 2.02 9.776 L 2.02 9.776 Q 2.02 9.832 2.076 9.832 L 2.076 9.832 L 6.676 9.832 L 6.676 10.88 L 0.972 10.88 L 0.972 8.656 L 0.972 8.656 Q 0.972 8.2 1.296 7.876 L 1.296 7.876 L 1.296 7.876 Q 1.62 7.552 2.076 7.552 L 2.076 7.552 L 5.572 7.552 L 5.572 7.552 Q 5.628 7.552 5.628 7.504 L 5.628 7.504 L 5.628 6.224 L 5.628 6.224 Q 5.628 6.168 5.572 6.168 L 5.572 6.168 L 2.076 6.168 L 2.076 6.168 Q 2.02 6.168 2.02 6.224 L 2.02 6.224 L 2.02 6.656 L 0.972 6.656 L 0.972 6.224 L 0.972 6.224 Q 0.972 5.768 1.296 5.444 L 1.296 5.444 L 1.296 5.444 Q 1.62 5.12 2.076 5.12 Z  M 7.588 9.832 L 8.636 9.832 L 8.636 10.88 L 7.588 10.88 L 7.588 9.832 Z " fill="rgb(33,43,51)"/></g></svg>