<?xml version="1.0" encoding="UTF-8" standalone="no"?><!-- Generator: Gravit.io --><svg xmlns="http://www.w3.org/2000/svg" xmlns:xlink="http://www.w3.org/1999/xlink" style="isolation:isolate" viewBox="0 0 16 16" width="16pt" height="16pt"><defs><clipPath id="_clipPath_FZwQbVr4NgbfAWlFys8Mz3dTitBmqKvl"><rect width="16" height="16"/></clipPath></defs><g clip-path="url(#_clipPath_FZwQbVr4NgbfAWlFys8Mz3dTitBmqKvl)"><g style="isolation:isolate"/><g><g><circle vector-effect="non-scaling-stroke" cx="7.999999999999999" cy="7.999999999999999" r="7.499999999999998" fill="rgb(232,230,225)"/><path d=" M 0.25 8 C 0.25 5.95 1.07 3.97 2.52 2.52 C 3.97 1.07 5.95 0.25 8 0.25 C 10.05 0.25 12.03 1.07 13.48 2.52 C 14.93 3.97 15.75 5.95 15.75 8 C 15.75 10.05 14.93 12.03 13.48 13.48 C 12.03 14.93 10.05 15.75 8 15.75 C 5.95 15.75 3.97 14.93 2.52 13.48 C 1.07 12.03 0.25 10.05 0.25 8 Z  M 0.75 8 C 0.75 6.08 1.51 4.23 2.87 2.87 C 4.23 1.51 6.08 0.75 8 0.75 C 9.92 0.75 11.77 1.51 13.13 2.87 C 14.49 4.23 15.25 6.08 15.25 8 C 15.25 9.92 14.49 11.77 13.13 13.13 C 11.77 14.49 9.92 15.25 8 15.25 C 6.08 15.25 4.23 14.49 2.87 13.13 C 1.51 11.77 0.75 9.92 0.75 8 Z " fill-rule="evenodd" fill="rgb(201,154,46)"/><path d=" M 13.044 2.447 C 13.045 2.452 13.048 2.455 13.053 2.456 C 14.556 3.83 15.5 5.806 15.5 8 C 15.5 12.139 12.139 15.5 8 15.5 C 5.801 15.5 3.822 14.552 2.447 13.044 C 3.782 14.258 5.555 15 7.5 15 C 11.639 15 15 11.639 15 7.5 C 15 5.56 14.262 3.79 13.053 2.456 C 13.048 2.455 13.045 2.452 13.044 2.447 Z " fill-rule="evenodd" fill="rgb(81,60,6)"/></g></g><g><path d=" M 5.588 8.827 L 5.508 8.998 L 5.218 9.613 L 4.057 7.74 L 2.889 5.856 L 4.963 6.639 L 7.017 7.415 L 6.493 7.8 L 6.299 7.943 L 8.105 9.463 L 8.946 5.114 L 14.108 8.713 L 14.569 9.029 L 13.927 9.96 L 13.457 9.635 L 9.723 7.031 L 8.846 11.56 L 5.588 8.827 Z " fill-rule="evenodd" fill="rgb(201,154,46)"/><path d=" M 5.664 9.192 L 5.248 10.087 L 3.865 7.863 L 2.346 5.413 L 5.04 6.425 L 7.49 7.347 L 6.667 7.953 L 7.96 9.038 L 8.792 4.735 L 14.235 8.523 L 14.886 8.975 L 13.982 10.277 L 13.331 9.825 L 9.877 7.411 L 8.991 11.976 L 5.664 9.192 Z  M 5.51 8.468 L 5.302 8.902 L 5.194 9.138 L 4.244 7.619 L 3.431 6.299 L 4.886 6.85 L 6.55 7.483 L 6.36 7.619 L 5.935 7.935 L 8.25 9.888 L 9.099 5.494 L 13.982 8.902 L 14.253 9.083 L 13.873 9.644 L 13.584 9.445 L 9.57 6.651 L 8.702 11.145 L 5.51 8.468 Z " fill-rule="evenodd" fill="rgb(81,60,6)"/></g></g></svg>