<?xml version="1.0" encoding="UTF-8" standalone="no"?><!-- Generator: Gravit.io --><svg xmlns="http://www.w3.org/2000/svg" xmlns:xlink="http://www.w3.org/1999/xlink" style="isolation:isolate" viewBox="0 0 16 16" width="16pt" height="16pt"><defs><clipPath id="_clipPath_XaHCy6xY4i7Y9Agf18CPcAGUkJ31xI8P"><rect width="16" height="16"/></clipPath></defs><g clip-path="url(#_clipPath_XaHCy6xY4i7Y9Agf18CPcAGUkJ31xI8P)"><rect width="16" height="16" style="fill:rgb(12,107,88)"/><g style="isolation:isolate"/><g><path d=" M 6.31 0.14 L 6.31 -0.11 L 5.81 -0.11 L 5.81 0.14 L 5.81 3.87 L 4.6 5.09 L 4.6 10.34 L 6.42 12.16 L 6.42 14.42 L 6.42 14.67 L 6.92 14.67 L 6.92 14.42 L 6.92 11.96 L 5.1 10.14 L 5.1 5.29 L 6.31 4.08 L 6.31 0.14 Z " fill="rgb(142,237,199)"/><path d=" M 4.6 16.11 L 4.6 16.36 L 5.1 16.36 L 5.1 16.11 L 5.1 14.39 L 5.83 13.64 L 5.83 12.79 L 5.83 12.54 L 5.33 12.54 L 5.33 12.79 L 5.33 13.44 L 4.6 14.19 L 4.6 16.11 Z " fill="rgb(142,237,199)"/><path d=" M 8.36 0.14 L 8.36 -0.11 L 7.86 -0.11 L 7.86 0.14 L 7.86 1.64 L 9.93 3.72 L 10.11 3.9 L 10.46 3.55 L 10.29 3.37 L 8.36 1.44 L 8.36 0.14 Z " fill="rgb(142,237,199)"/><path d=" M 2.94 15.98 L 2.94 16.23 L 3.44 16.23 L 3.44 15.98 L 3.44 8.73 L 2.41 7.65 L 2.24 7.47 L 1.88 7.82 L 2.05 8 L 2.94 8.93 L 2.94 15.98 Z " fill="rgb(142,237,199)"/><path d=" M 11.5 15.8 L 11.5 16.05 L 12 16.05 L 12 15.8 L 12 13.64 L 10.7 12.34 L 10.52 12.16 L 10.17 12.52 L 10.34 12.69 L 11.5 13.85 L 11.5 15.8 Z " fill="rgb(142,237,199)"/><path d=" M 15.094 0.14 L 15.094 -0.11 L 14.594 -0.11 L 14.594 0.14 L 14.594 6.95 L 12.684 8.86 L 12.684 12.79 L 12.684 13.04 L 13.184 13.04 L 13.184 12.79 L 13.184 9.07 L 15.094 7.16 L 15.094 0.14 Z " fill="rgb(142,237,199)"/><path d=" M 11.73 0.14 L 11.73 -0.11 L 11.23 -0.11 L 11.23 0.14 L 11.23 1.46 L 13.14 3.38 L 13.14 5.19 L 13.14 5.44 L 13.64 5.44 L 13.64 5.19 L 13.64 3.17 L 11.73 1.26 L 11.73 0.14 Z " fill="rgb(142,237,199)"/><path d=" M 8.88 4.71 L 8.88 4.46 L 8.38 4.46 L 8.38 4.71 L 8.38 6.14 L 6.71 7.72 L 6.71 9.91 L 6.71 10.16 L 7.21 10.16 L 7.21 9.91 L 7.21 7.93 L 8.88 6.36 L 8.88 4.71 Z " fill="rgb(142,237,199)"/><path d=" M 14.514 15.98 L 14.514 16.23 L 15.014 16.23 L 15.014 15.98 L 15.014 10.65 L 15.014 10.4 L 14.514 10.4 L 14.514 10.65 L 14.514 15.98 Z " fill="rgb(142,237,199)"/><path d=" M 1.49 0.14 L 1.49 -0.11 L 0.99 -0.11 L 0.99 0.14 L 0.99 2.45 L 2.94 4.39 L 2.94 5.92 L 2.94 6.17 L 3.44 6.17 L 3.44 5.92 L 3.44 4.18 L 1.49 2.24 L 1.49 0.14 Z " fill="rgb(142,237,199)"/><path d=" M 0.99 14.85 L 0.99 15.1 L 1.49 15.1 L 1.49 14.85 L 1.49 11.17 L 0.18 9.86 L 0 9.68 L -0.35 10.03 L -0.18 10.21 L 0.99 11.37 L 0.99 14.85 Z " fill="rgb(142,237,199)"/><path d=" M 3.39 1.17 L 3.39 1.42 L 3.89 1.42 L 3.89 1.17 L 3.89 0.14 L 3.89 -0.11 L 3.39 -0.11 L 3.39 0.14 L 3.39 1.17 Z " fill="rgb(142,237,199)"/><path d=" M 8.38 16.16 L 8.38 16.41 L 8.88 16.41 L 8.88 16.16 L 8.88 11.75 L 10.77 9.78 L 10.77 8.57 L 10.77 8.32 L 10.27 8.32 L 10.27 8.57 L 10.27 9.58 L 8.38 11.55 L 8.38 16.16 Z " fill="rgb(142,237,199)"/><path d=" M 9.778 3.772 C 9.778 4.048 10.002 4.272 10.278 4.272 C 10.554 4.272 10.778 4.048 10.778 3.772 C 10.778 3.496 10.554 3.272 10.278 3.272 C 10.002 3.272 9.778 3.496 9.778 3.772 Z " fill="rgb(201,242,167)"/><path d=" M 8.129 4.515 C 8.129 4.79 8.353 5.015 8.629 5.015 C 8.905 5.015 9.129 4.79 9.129 4.515 C 9.129 4.239 8.905 4.015 8.629 4.015 C 8.353 4.015 8.129 4.239 8.129 4.515 Z " fill="rgb(201,242,167)"/><path d=" M 6.424 10.057 C 6.424 10.333 6.648 10.557 6.924 10.557 C 7.2 10.557 7.424 10.333 7.424 10.057 C 7.424 9.781 7.2 9.557 6.924 9.557 C 6.648 9.557 6.424 9.781 6.424 10.057 Z " fill="rgb(201,242,167)"/><path d=" M 10.019 8.464 C 10.019 8.74 10.244 8.964 10.519 8.964 C 10.795 8.964 11.019 8.74 11.019 8.464 C 11.019 8.188 10.795 7.964 10.519 7.964 C 10.244 7.964 10.019 8.188 10.019 8.464 Z " fill="rgb(201,242,167)"/><path d=" M 12.888 5.395 C 12.888 5.671 13.112 5.895 13.388 5.895 C 13.664 5.895 13.888 5.671 13.888 5.395 C 13.888 5.119 13.664 4.895 13.388 4.895 C 13.112 4.895 12.888 5.119 12.888 5.395 Z " fill="rgb(201,242,167)"/><path d=" M 10.019 12.402 C 10.019 12.677 10.244 12.902 10.519 12.902 C 10.795 12.902 11.019 12.677 11.019 12.402 C 11.019 12.126 10.795 11.902 10.519 11.902 C 10.244 11.902 10.019 12.126 10.019 12.402 Z " fill="rgb(201,242,167)"/><path d=" M 12.435 13.016 C 12.435 13.292 12.659 13.516 12.935 13.516 C 13.211 13.516 13.435 13.292 13.435 13.016 C 13.435 12.74 13.211 12.516 12.935 12.516 C 12.659 12.516 12.435 12.74 12.435 13.016 Z " fill="rgb(201,242,167)"/><path d=" M 14.26 10.557 C 14.26 10.833 14.484 11.057 14.76 11.057 C 15.036 11.057 15.26 10.833 15.26 10.557 C 15.26 10.281 15.036 10.057 14.76 10.057 C 14.484 10.057 14.26 10.281 14.26 10.557 Z " fill="rgb(201,242,167)"/><path d=" M 5.078 12.45 C 5.078 12.726 5.302 12.95 5.578 12.95 C 5.854 12.95 6.078 12.726 6.078 12.45 C 6.078 12.174 5.854 11.95 5.578 11.95 C 5.302 11.95 5.078 12.174 5.078 12.45 Z " fill="rgb(201,242,167)"/><path d=" M 6.168 14.556 C 6.168 14.832 6.392 15.056 6.668 15.056 C 6.944 15.056 7.168 14.832 7.168 14.556 C 7.168 14.28 6.944 14.056 6.668 14.056 C 6.392 14.056 6.168 14.28 6.168 14.556 Z " fill="rgb(201,242,167)"/><path d=" M 1.731 7.777 C 1.731 8.053 1.955 8.277 2.231 8.277 C 2.507 8.277 2.731 8.053 2.731 7.777 C 2.731 7.501 2.507 7.277 2.231 7.277 C 1.955 7.277 1.731 7.501 1.731 7.777 Z " fill="rgb(201,242,167)"/><path d=" M 0.731 14.85 C 0.731 15.126 0.955 15.35 1.231 15.35 C 1.507 15.35 1.731 15.126 1.731 14.85 C 1.731 14.574 1.507 14.35 1.231 14.35 C 0.955 14.35 0.731 14.574 0.731 14.85 Z " fill="rgb(201,242,167)"/><path d=" M 2.688 5.964 C 2.688 6.239 2.912 6.464 3.188 6.464 C 3.464 6.464 3.688 6.239 3.688 5.964 C 3.688 5.688 3.464 5.464 3.188 5.464 C 2.912 5.464 2.688 5.688 2.688 5.964 Z " fill="rgb(201,242,167)"/><path d=" M 3.136 1.541 C 3.136 1.817 3.36 2.041 3.636 2.041 C 3.912 2.041 4.136 1.817 4.136 1.541 C 4.136 1.265 3.912 1.041 3.636 1.041 C 3.36 1.041 3.136 1.265 3.136 1.541 Z " fill="rgb(201,242,167)"/><path d=" M 0 16 L 16 16 L 16 0 L 0 0 L 0 16 Z  M 0.5 15.5 L 15.5 15.5 L 15.5 0.5 L 0.5 0.5 L 0.5 15.5 Z " fill-rule="evenodd" fill="rgb(142,237,199)"/></g></g></svg>