<?xml version="1.0" encoding="UTF-8" standalone="no"?><!-- Generator: Gravit.io --><svg xmlns="http://www.w3.org/2000/svg" xmlns:xlink="http://www.w3.org/1999/xlink" style="isolation:isolate" viewBox="0 0 16 16" width="16pt" height="16pt"><defs><clipPath id="_clipPath_e4X8awjhg7Wx4yJxguUibyLVZvQZzrg7"><rect width="16" height="16"/></clipPath></defs><g clip-path="url(#_clipPath_e4X8awjhg7Wx4yJxguUibyLVZvQZzrg7)"><g style="isolation:isolate"/><g><g><circle vector-effect="non-scaling-stroke" cx="7.999999999999999" cy="7.999999999999999" r="7.499999999999998" fill="rgb(232,230,225)"/><path d=" M 0.25 8 C 0.25 5.95 1.07 3.97 2.52 2.52 C 3.97 1.07 5.95 0.25 8 0.25 C 10.05 0.25 12.03 1.07 13.48 2.52 C 14.93 3.97 15.75 5.95 15.75 8 C 15.75 10.05 14.93 12.03 13.48 13.48 C 12.03 14.93 10.05 15.75 8 15.75 C 5.95 15.75 3.97 14.93 2.52 13.48 C 1.07 12.03 0.25 10.05 0.25 8 Z  M 0.75 8 C 0.75 6.08 1.51 4.23 2.87 2.87 C 4.23 1.51 6.08 0.75 8 0.75 C 9.92 0.75 11.77 1.51 13.13 2.87 C 14.49 4.23 15.25 6.08 15.25 8 C 15.25 9.92 14.49 11.77 13.13 13.13 C 11.77 14.49 9.92 15.25 8 15.25 C 6.08 15.25 4.23 14.49 2.87 13.13 C 1.51 11.77 0.75 9.92 0.75 8 Z " fill-rule="evenodd" fill="rgb(247,155,25)"/><path d=" M 13.044 2.447 C 13.045 2.452 13.048 2.455 13.053 2.456 C 14.556 3.83 15.5 5.806 15.5 8 C 15.5 12.139 12.139 15.5 8 15.5 C 5.801 15.5 3.822 14.552 2.447 13.044 C 3.782 14.258 5.555 15 7.5 15 C 11.639 15 15 11.639 15 7.5 C 15 5.56 14.262 3.79 13.053 2.456 C 13.048 2.455 13.045 2.452 13.044 2.447 Z " fill-rule="evenodd" fill="rgb(121,73,6)"/></g></g><path d=" M 8.193 4.856 C 4.632 4.683 2.378 5.233 1.52 6.722 C 0.234 8.949 1.771 13.423 8.534 14.312 C 3.76 12.999 2.892 9.361 4.011 7.423 C 4.629 6.352 6.057 6.036 8.176 5.738 L 8.16 6.53 L 10.301 5.913 L 12.442 5.297 L 10.327 4.597 L 8.211 3.898 L 8.193 4.856 Z " fill-rule="evenodd" fill="rgb(247,155,25)"/><path d=" M 7.95 4.6 L 7.97 3.55 L 10.41 4.36 L 13.29 5.31 L 10.37 6.15 L 7.9 6.86 L 7.92 6.03 C 7.53 6.08 7.15 6.15 6.76 6.22 C 6.37 6.3 5.99 6.4 5.61 6.53 C 5.31 6.63 5.03 6.77 4.77 6.95 C 4.55 7.11 4.36 7.31 4.23 7.55 C 3.96 8.03 3.82 8.58 3.82 9.14 C 3.84 10.16 4.23 11.14 4.9 11.91 C 5.32 12.39 5.82 12.81 6.38 13.14 C 7.07 13.55 8.254 13.985 8.57 14.111 C 8.886 14.238 9.205 14.339 9.336 14.419 C 9.16 14.475 8.88 14.541 8.36 14.541 C 7.84 14.541 6.13 14.11 5.02 13.64 C 4.15 13.27 3.34 12.76 2.64 12.12 C 2.08 11.6 1.61 10.97 1.29 10.27 C 1.01 9.67 0.86 9.02 0.86 8.36 C 0.85 7.75 1 7.14 1.3 6.6 C 1.52 6.23 1.8 5.92 2.14 5.67 C 2.52 5.4 2.94 5.19 3.39 5.04 C 3.91 4.87 4.45 4.75 5 4.69 C 5.66 4.61 6.33 4.57 6.99 4.58 C 7.31 4.58 7.63 4.58 7.95 4.6 Z  M 5.93 13.46 C 5.69 13.37 5.45 13.28 5.21 13.18 C 4.39 12.83 3.64 12.35 2.98 11.75 C 2.46 11.27 2.04 10.7 1.74 10.06 C 1.49 9.52 1.36 8.94 1.36 8.36 C 1.35 7.83 1.48 7.31 1.74 6.85 C 1.91 6.54 2.15 6.28 2.44 6.07 C 2.77 5.83 3.15 5.65 3.54 5.52 C 4.04 5.36 4.54 5.25 5.06 5.19 C 5.7 5.11 6.35 5.07 6.99 5.08 C 7.39 5.08 7.78 5.09 8.18 5.11 C 8.25 5.11 8.31 5.09 8.36 5.04 C 8.41 4.99 8.44 4.93 8.44 4.86 L 8.45 4.24 L 10.25 4.83 L 11.6 5.28 L 10.23 5.67 L 8.42 6.2 L 8.43 5.74 C 8.43 5.67 8.4 5.6 8.34 5.55 C 8.29 5.5 8.21 5.48 8.14 5.49 C 7.65 5.56 7.16 5.64 6.67 5.73 C 6.26 5.81 5.85 5.92 5.45 6.05 C 5.1 6.17 4.78 6.34 4.48 6.55 C 4.2 6.75 3.97 7 3.79 7.3 C 3.48 7.86 3.32 8.5 3.32 9.15 C 3.35 10.28 3.77 11.38 4.53 12.24 C 4.93 12.71 5.41 13.12 5.93 13.46 Z " fill-rule="evenodd" fill="rgb(121,73,6)"/></g></svg>