<?xml version="1.0" encoding="UTF-8" standalone="no"?><!-- Generator: Gravit.io --><svg xmlns="http://www.w3.org/2000/svg" xmlns:xlink="http://www.w3.org/1999/xlink" style="isolation:isolate" viewBox="0 0 16 16" width="16pt" height="16pt"><defs><clipPath id="_clipPath_I7z7PuS0rNAYmo45DJHzJgVDEo1WJJUY"><rect width="16" height="16"/></clipPath></defs><g clip-path="url(#_clipPath_I7z7PuS0rNAYmo45DJHzJgVDEo1WJJUY)"><g style="isolation:isolate"/><g><g><circle vector-effect="non-scaling-stroke" cx="7.999999999999999" cy="7.999999999999999" r="7.499999999999998" fill="rgb(232,230,225)"/><path d=" M 0.25 8 C 0.25 5.95 1.07 3.97 2.52 2.52 C 3.97 1.07 5.95 0.25 8 0.25 C 10.05 0.25 12.03 1.07 13.48 2.52 C 14.93 3.97 15.75 5.95 15.75 8 C 15.75 10.05 14.93 12.03 13.48 13.48 C 12.03 14.93 10.05 15.75 8 15.75 C 5.95 15.75 3.97 14.93 2.52 13.48 C 1.07 12.03 0.25 10.05 0.25 8 Z  M 0.75 8 C 0.75 6.08 1.51 4.23 2.87 2.87 C 4.23 1.51 6.08 0.75 8 0.75 C 9.92 0.75 11.77 1.51 13.13 2.87 C 14.49 4.23 15.25 6.08 15.25 8 C 15.25 9.92 14.49 11.77 13.13 13.13 C 11.77 14.49 9.92 15.25 8 15.25 C 6.08 15.25 4.23 14.49 2.87 13.13 C 1.51 11.77 0.75 9.92 0.75 8 Z " fill-rule="evenodd" fill="rgb(247,208,112)"/><path d=" M 13.044 2.447 C 13.045 2.452 13.048 2.455 13.053 2.456 C 14.556 3.83 15.5 5.806 15.5 8 C 15.5 12.139 12.139 15.5 8 15.5 C 5.801 15.5 3.822 14.552 2.447 13.044 C 3.782 14.258 5.555 15 7.5 15 C 11.639 15 15 11.639 15 7.5 C 15 5.56 14.262 3.79 13.053 2.456 C 13.048 2.455 13.045 2.452 13.044 2.447 Z " fill-rule="evenodd" fill="rgb(201,154,46)"/></g></g><g><path d=" M 11.947 6.13 L 11.634 6.17 C 11.026 6.245 10.454 6.526 10.014 6.956 C 9.696 7.303 9.434 7.687 9.218 8.099 C 9.097 8.342 8.937 8.576 8.75 8.773 C 8.61 8.895 8.432 8.951 8.254 8.951 L 8.17 8.951 C 7.926 8.941 7.701 8.838 7.533 8.67 C 7.299 8.389 7.112 8.089 6.962 7.762 C 6.774 7.359 6.55 6.975 6.278 6.629 C 5.922 6.189 5.426 5.889 4.874 5.795 C 4.677 5.758 4.48 5.739 4.284 5.739 C 3.731 5.72 3.188 5.917 2.758 6.273 C 2.477 6.544 2.233 6.863 2.055 7.219 C 1.971 7.378 1.868 7.518 1.765 7.659 L 1.25 8.295 L 2.533 9.325 L 3.038 8.679 C 3.216 8.464 3.376 8.23 3.507 7.977 C 3.591 7.799 3.713 7.64 3.853 7.499 C 3.965 7.415 4.106 7.368 4.256 7.378 C 4.368 7.378 4.48 7.387 4.593 7.406 C 4.743 7.434 4.883 7.518 4.986 7.64 C 5.173 7.893 5.342 8.155 5.473 8.445 C 5.688 8.923 5.969 9.363 6.316 9.765 C 6.784 10.262 7.421 10.561 8.104 10.589 C 8.113 10.589 8.113 10.589 8.123 10.589 L 8.216 10.589 C 8.226 10.589 8.226 10.589 8.226 10.589 C 8.834 10.599 9.434 10.374 9.883 9.953 C 10.202 9.625 10.473 9.25 10.679 8.838 C 10.82 8.576 10.988 8.323 11.194 8.099 C 11.372 7.93 11.597 7.827 11.84 7.799 L 11.947 7.786 L 11.947 8.389 L 13.165 7.686 L 14.383 6.983 L 13.165 6.28 L 11.947 5.577 L 11.947 6.13 Z " fill-rule="evenodd" fill="rgb(247,208,112)"/><path d=" M 1.57 7.5 L 1.57 7.5 L 1.56 7.51 L 1.56 7.51 C 1.56 7.51 1.57 7.51 1.57 7.51 C 1.57 7.51 1.57 7.5 1.57 7.5 C 1.67 7.38 1.76 7.24 1.83 7.1 C 2.03 6.72 2.28 6.38 2.59 6.09 C 3.04 5.7 3.62 5.49 4.21 5.49 C 4.21 5.49 4.21 5.49 4.22 5.49 L 4.29 5.49 C 4.5 5.49 4.71 5.51 4.92 5.55 C 5.53 5.66 6.09 5.99 6.47 6.47 C 6.76 6.84 7 7.24 7.19 7.66 C 7.33 7.96 7.51 8.24 7.72 8.5 C 7.84 8.62 8 8.69 8.18 8.7 L 8.25 8.7 C 8.25 8.7 8.26 8.7 8.26 8.7 C 8.37 8.7 8.49 8.66 8.58 8.59 C 8.75 8.41 8.89 8.21 9 7.99 C 9.22 7.55 9.5 7.15 9.83 6.78 C 10.31 6.31 10.93 6.01 11.6 5.92 C 11.6 5.92 11.6 5.92 11.6 5.92 L 11.7 5.91 L 11.7 5.14 L 13.29 6.06 L 14.88 6.98 L 13.29 7.9 L 11.7 8.82 L 11.7 8.08 C 11.58 8.12 11.47 8.19 11.37 8.27 C 11.19 8.48 11.03 8.71 10.9 8.95 C 10.68 9.39 10.4 9.78 10.06 10.13 C 9.57 10.59 8.93 10.84 8.26 10.84 C 8.26 10.84 8.26 10.84 8.26 10.84 L 8.22 10.84 L 8.22 10.84 L 8.22 10.84 L 8.12 10.84 L 8.11 10.84 L 8.1 10.84 C 8.1 10.84 8.1 10.84 8.09 10.84 C 7.35 10.81 6.64 10.48 6.13 9.93 C 5.77 9.52 5.47 9.05 5.25 8.55 C 5.12 8.28 4.97 8.03 4.79 7.8 C 4.73 7.72 4.65 7.67 4.56 7.65 L 4.24 7.63 L 4.21 7.63 C 4.14 7.63 4.07 7.65 4.02 7.69 C 3.9 7.81 3.8 7.94 3.73 8.09 C 3.59 8.36 3.42 8.61 3.23 8.84 L 2.57 9.68 L 0.9 8.33 L 1.57 7.5 Z  M 4.24 7.63 L 4.23 7.63 L 4.26 7.63 L 4.25 7.63 L 4.24 7.63 Z  M 12.2 6.35 L 12.2 6.01 L 13.04 6.5 L 13.88 6.98 L 13.04 7.47 L 12.2 7.96 L 12.2 7.5 L 11.81 7.55 C 11.51 7.59 11.23 7.72 11.01 7.92 C 10.8 8.17 10.61 8.43 10.46 8.72 C 10.26 9.11 10.01 9.46 9.71 9.77 C 9.32 10.14 8.8 10.34 8.26 10.34 L 8.23 10.34 L 8.22 10.34 L 8.22 10.34 L 8.12 10.34 L 8.11 10.34 L 8.11 10.34 C 7.5 10.31 6.92 10.04 6.5 9.6 C 6.18 9.22 5.91 8.8 5.7 8.34 C 5.56 8.04 5.38 7.75 5.18 7.48 C 5.04 7.32 4.85 7.2 4.64 7.16 C 4.63 7.16 4.62 7.16 4.61 7.16 L 4.27 7.13 L 4.26 7.13 L 4.23 7.13 C 4.22 7.13 4.22 7.13 4.22 7.13 C 4.03 7.13 3.84 7.19 3.69 7.31 C 3.52 7.47 3.39 7.66 3.28 7.86 C 3.16 8.1 3.01 8.32 2.85 8.52 C 2.84 8.52 2.84 8.52 2.84 8.53 L 2.49 8.97 L 1.6 8.26 L 1.96 7.81 L 1.96 7.81 C 2.08 7.66 2.18 7.5 2.28 7.34 C 2.44 7.01 2.66 6.71 2.92 6.46 C 3.29 6.16 3.74 5.99 4.21 5.99 L 4.28 5.99 C 4.28 5.99 4.28 5.99 4.28 5.99 C 4.47 5.99 4.65 6.01 4.83 6.04 C 5.32 6.13 5.77 6.39 6.08 6.78 C 6.34 7.12 6.56 7.48 6.73 7.87 C 6.89 8.22 7.1 8.54 7.35 8.84 C 7.56 9.06 7.85 9.19 8.16 9.2 C 8.16 9.2 8.17 9.2 8.17 9.2 L 8.25 9.2 C 8.5 9.2 8.74 9.12 8.92 8.95 C 9.13 8.73 9.31 8.48 9.44 8.21 C 9.64 7.82 9.9 7.46 10.19 7.13 C 10.59 6.74 11.11 6.49 11.67 6.42 L 12.2 6.35 Z " fill-rule="evenodd" fill="rgb(201,154,46)"/></g></g></svg>