<?xml version="1.0" encoding="UTF-8" standalone="no"?><!-- Generator: Gravit.io --><svg xmlns="http://www.w3.org/2000/svg" xmlns:xlink="http://www.w3.org/1999/xlink" style="isolation:isolate" viewBox="0 0 16 16" width="16pt" height="16pt"><defs><clipPath id="_clipPath_rVW5HGI3A9rDB3tOSQX9U3uo54u5dyzK"><rect width="16" height="16"/></clipPath></defs><g clip-path="url(#_clipPath_rVW5HGI3A9rDB3tOSQX9U3uo54u5dyzK)"><g style="isolation:isolate"/><g><g><circle vector-effect="non-scaling-stroke" cx="7.999999999999999" cy="7.999999999999999" r="7.499999999999998" fill="rgb(232,230,225)"/><path d=" M 0.25 8 C 0.25 5.95 1.07 3.97 2.52 2.52 C 3.97 1.07 5.95 0.25 8 0.25 C 10.05 0.25 12.03 1.07 13.48 2.52 C 14.93 3.97 15.75 5.95 15.75 8 C 15.75 10.05 14.93 12.03 13.48 13.48 C 12.03 14.93 10.05 15.75 8 15.75 C 5.95 15.75 3.97 14.93 2.52 13.48 C 1.07 12.03 0.25 10.05 0.25 8 Z  M 0.75 8 C 0.75 6.08 1.51 4.23 2.87 2.87 C 4.23 1.51 6.08 0.75 8 0.75 C 9.92 0.75 11.77 1.51 13.13 2.87 C 14.49 4.23 15.25 6.08 15.25 8 C 15.25 9.92 14.49 11.77 13.13 13.13 C 11.77 14.49 9.92 15.25 8 15.25 C 6.08 15.25 4.23 14.49 2.87 13.13 C 1.51 11.77 0.75 9.92 0.75 8 Z " fill-rule="evenodd" fill="rgb(142,237,199)"/><path d=" M 13.044 2.447 C 13.045 2.452 13.048 2.455 13.053 2.456 C 14.556 3.83 15.5 5.806 15.5 8 C 15.5 12.139 12.139 15.5 8 15.5 C 5.801 15.5 3.822 14.552 2.447 13.044 C 3.782 14.258 5.555 15 7.5 15 C 11.639 15 15 11.639 15 7.5 C 15 5.56 14.262 3.79 13.053 2.456 C 13.048 2.455 13.045 2.452 13.044 2.447 Z " fill-rule="evenodd" fill="rgb(25,148,115)"/><path d=" M 12.304 12.275 L 10.152 6.887 L 8 1.5 L 5.848 6.887 L 3.696 12.275 L 3.696 12.275 L 5.848 11.529 L 8 10.784 L 10.152 11.529 L 12.304 12.275 Z " fill-rule="evenodd" fill="rgb(62,189,147)"/><path d=" M 12.74 12.69 L 10.07 11.77 L 8 11.05 L 5.93 11.77 L 3.26 12.69 L 5.62 6.79 L 8 0.83 L 10.38 6.79 L 12.74 12.69 Z  M 11.87 11.86 L 10.23 11.29 L 8 10.52 L 5.77 11.29 L 4.13 11.86 L 6.08 6.98 L 8 2.17 L 9.92 6.98 L 11.87 11.86 Z " fill-rule="evenodd" fill="rgb(25,148,115)"/></g></g></g></svg>