<svg enable-background="new 0 0 113.4 113.3" viewBox="0 0 113.4 113.3" xmlns="http://www.w3.org/2000/svg"><path d="m113.4 56.6c0 31.5-25.4 56.7-57.1 56.7-31.2 0-56.4-25.5-56.3-57.1 0-31.1 25.6-56.3 57.2-56.2 30.9-.1 56.2 25.5 56.2 56.6z" fill="#020203"/><path d="m112.4 56.6c-.2 30.9-24.9 55.7-55.8 55.6-30.8-.1-55.5-24.8-55.5-55.6-.1-30.8 25-55.9 55.9-55.7 30.7.2 55.2 24.8 55.4 55.7z" fill="#629030"/><path d="m56.6 109c-28.8.3-52.8-23.7-52.5-53 .3-28.5 23.9-52.3 53.3-52 28.3.4 52.2 23.9 51.8 53.4-.5 28.3-23.8 51.9-52.6 51.6z" fill="#010202"/><g fill="#ffea00"><path d="m92.8 41.2c1.3.5 2.3 1.4 3.4 2.3 4.6 3.8 8.1 8.5 11 13.7.6 1 .7 2 .6 3.2-.9 11-4.9 20.8-12 29.3-8.1 9.6-18.5 15.4-30.9 17.4-26.5 4.2-51.1-12.1-57.8-38-.8-3.2-1.3-6.4-1.5-9.7 0-.5.1-.9.3-1.3 3.4-6.6 8-12.2 14.1-16.6.1-.1.3-.2.4-.2s.2 0 .3.1c-.8 1.3-1.6 2.7-2.4 4-1.7 2.9-2.7 6-3.9 9.1-.3.7 0 1.1.4 1.5 6.1 6.7 12.2 13.4 18.3 20.1 2.7 2.9 5.3 5.8 7.9 8.7.4.5.7.6 1.3.2 3.7-2.5 7.4-4.9 11.2-7.4.1-.1.2-.1.4-.3-10.2-6.2-20.2-12.7-31.9-16 2-1.4 4.3-1.4 6.5-1 3.8.6 7.1 2.3 10.4 4.2 4.7 2.8 9.4 5.8 14 8.7.3.2.7.4 1.3.8-.1-6.1 0-11.9 2.5-17.7 2.5 5.7 2.6 11.6 2.5 17.5.6-.1.9-.4 1.3-.6 5.6-3.7 11.1-7.5 17.1-10.5 3.3-1.7 6.7-2.9 10.4-2.6 1.1.1 2.2.4 3.4 1.2-6 1.5-11.3 4.1-16.6 6.9-5.2 2.8-10.3 5.9-15.4 9.1 4 2.6 7.9 5.2 11.7 7.7.7.5 1-.1 1.3-.4 3.7-4.1 7.5-8.2 11.2-12.3 4.9-5.4 9.7-10.7 14.7-16.1.7-.8.8-1.4.5-2.5-1.5-4.4-3.4-8.6-6-12.5z"/><path d="m13.5 28.8c11.1-15.8 26.1-24 45.3-23.3 17.5.7 31.2 8.8 40.9 23.6-2.1-1-4.2-2-6.4-2.9-4.8-2.1-9.8-3.6-15.1-4.1-3.9-.4-7.8 0-11.6 1-1 .3-1.6.8-1.8 2-.4 2.4-1.1 2.9-3.5 3.3-.5.1-.7-.1-.9-.6-.3-1.1-.4-2.3-.9-3.3-.5-1.2-.1-1.9.8-2.5.2-.2.4-.4.7-.6-.7-.6-1.4-.2-2.1-.4.4-1.2 1.6-1.6 2.6-2.6-1.9.1-3.5.4-5 1-1.4.5-2.6 1.2-3.9 2-1.5 1-1.8 1.6-1.1 3.5.5-.2 1-.8 1.6-.3s.7 1.2.5 1.9c-.4 2.1-.8 2.3-2.9 1.7-1.2-.5-1.9-1.1-2.1-2.5-.3-2.2-.8-2.5-3.2-3-7.3-1.6-14.3-.5-21.2 1.9-3.2 1.1-6.3 2.4-9.3 4-.4.1-.7.5-1.4.2z"/><path d="m69.6 38.8c3.7 3.6 3 7.8 1.6 12.1-.7 2.2-1.7 4.3-2.6 6.4 3.6-1.9 5.8-5 7.6-8.8.9 1.9 1 3.8 1.2 5.6.1 1.5-.1 2.9-.1 4.3 0 .5-.2.5-.6.6-2.8.5-5.5 1-8.3 1.5-.6.1-.9 0-1.1-.6-2.3-5-4.2-10.1-4.9-15.6 3.6-.4 5.2-3.3 7.2-5.5z"/><path d="m37 48.6c3 5.2 4.9 7.4 7.6 8.7.2-.4-.2-.7-.3-1-1.2-2.5-2.2-5-2.9-7.6-1-3.7-.6-7.1 2.3-9.9.6.8 1.3 1.7 2.1 2.5 1.3 1.4 2.6 2.9 4.7 2.9.5 0 .4.3.3.6-.7 5.4-2.7 10.4-4.9 15.4-.2.5-.6.4-1 .4-2.8-.5-5.5-1-8.3-1.5-.3 0-.5 0-.6-.4-.5-2.7 0-7.8 1-10.1z"/><path d="m31.8 27.4c-6.5 2.5-11.8 6.7-16.9 11.4-2.6 2.4-5.2 5-7.5 7.8-.3.3-.5.8-1.1.8.9-4.8 2.5-9.4 4.6-13.8.7-1.4 1.6-2.1 3.1-2.5 4.2-1 8.3-2.4 12.5-3.2 1.5-.3 3-.6 4.5-.7.3 0 .7-.3.8.2z"/><path d="m82.3 27.2c4.6.4 9 1.6 13.5 2.9 1.6.4 3.2.9 4.9 1.4.4.1.8.3 1.1.8 2.5 4.6 4.2 9.5 5.2 14.7 0 .1 0 .2-.1.6-.7-.7-1.2-1.3-1.7-1.9-5.2-5.7-10.8-11.1-17.5-15.1-1.9-1.2-4-2.2-6.1-3 .1-.8.4-.4.7-.4z"/><path d="m93.1 56.2c-2.1.4-4 .7-5.9 1.1-.7.1-1 0-1.1-.8-.4-3.7-1.1-7.3-2.6-10.8-.2-.5-.4-1-.6-1.5 4.6 2.9 8.1 6.7 10.2 12z"/><path d="m20.2 56.2c2.1-5.2 5.6-9 10.2-12.2-.7 1.9-1.3 3.5-1.8 5.1-.7 2.4-1.2 4.9-1.4 7.4-.1.8-.4.9-1.1.8-1.9-.4-3.8-.7-5.9-1.1z"/></g><path d="m31.8 27.4c-.2-.3-.5-.1-.7-.2.5-.3 1-.3 1.6-.2-.3.4-.7.3-.9.4z" fill="#bda903"/><path d="m82.3 27.2c-.2.1-.6-.1-.7.2-.3-.1-.5-.2-.8-.2.5-.2 1-.3 1.5 0z" fill="#bda804"/><path d="m54.2 80.5v8.2c0 .4-.2.7-.5.9-1.2 1.2-2.5 2.4-3.7 3.7-.4.4-.6.5-1.1 0-1.5-1.7-3.1-3.4-4.7-5.1-.2-.3-.6-.5-.1-.9 3.4-2.2 6.6-4.4 10.1-6.8z" fill="#020203"/><path d="m59.2 80.5c3.4 2.3 6.6 4.5 9.8 6.7.5.3.5.5.1 1-1.6 1.7-3.2 3.5-4.8 5.2-.4.4-.6.3-1 0-1.2-1.3-2.5-2.5-3.8-3.8-.3-.3-.4-.7-.4-1.1.1-2.6.1-5.1.1-8z" fill="#020202"/><path d="m28.6 92.4c0-1.1.4-1.5 1.4-1 1.2.6 2.2.1 3.1-.6 1.2-.8 2.4-1.7 3.6-2.6.3-.2.9-.3.6-.8s-.4-1.4-1.2-1.4c-.6-.1-1.2-.2-1.2-.9 0-.5.2-1 .7-1 .6-.1 1.2.1 1.6.7 1.2 1.9 2.4 3.8 3.5 5.7.3.5.6.9 1.3.9.8 0 .9.7.8 1.3s-.6.8-1.3.6c-.6-.1-1-.5-1.2-1-.5-1.4-1.2-1.2-2.2-.5-1.8 1.2-3.7 2.2-5.5 3.2-2.2 1.1-4.1-.1-4-2.6z" fill="#020303"/><path d="m82.3 91.6c.3 0 .6 0 1-.2 1.1-.5 1.5-.2 1.5 1-.1 1.2-.6 2.1-1.5 2.8-.6.5-1.2.3-1.7 0-2.3-1.3-4.5-2.5-6.7-3.9-.8-.5-1.2-.4-1.5.4-.3.6-.6 1.3-1.4 1.4-.6.1-1.1 0-1.2-.7-.1-.6 0-1.2.7-1.2.8 0 1.1-.5 1.4-1.1 1-1.7 2.1-3.5 3.2-5.2.2-.3.4-.7.8-.9.4-.1.8-.4 1.3-.1.4.3.5.7.4 1.1-.1.5-.5.7-1 .7-1 0-1.1.9-1.4 1.5-.3.5.5.7.8.9 1.1.8 2.2 1.6 3.3 2.4.5.7 1.2 1.1 2 1.1z" fill="#020303"/></svg>